<svg width="20px" height="20px" class="rename-icon" fill="#000000" viewBox="300 500 1350 1050" xmlns="http://www.w3.org/2000/svg">
    <g stroke-width="0"/>
    <g stroke-linecap="round" stroke-linejoin="round"/>
    <g>
        <path fill="#20369F" d="M1592.4,609.3,1413.7,430.6a45,45,0,0,0-63.7,0L801,979.7a44.4,44.4,0,0,0-13,27.9l-17.1,195.7a44.9,44.9,0,0,0,44.8,48.9h3.9l195.8-17.1a44.9,44.9,0,0,0,27.9-13l430.6-430.6h0a.1.1,0,0,1,.1-.1l118.4-118.4A44.9,44.9,0,0,0,1592.4,609.3Zm-150.3,86.6L1327,580.8l54.9-54.8,115,115.1Z"/>
        <path fill="#000000" d="M982.2,1615a546.2,546.2,0,1,1,0-1092.4,557.1,557.1,0,0,1,89.5,7.3,45,45,0,0,1-7.3,89.4,47.1,47.1,0,0,1-7.4-.6,466,466,0,0,0-74.8-6.1,455.8,455.8,0,1,0,439.3,332.8,45,45,0,1,1,86.7-24.3,548.3,548.3,0,0,1,20.2,147.7A545.7,545.7,0,0,1,982.2,1615Z"/>
    </g>
</svg>
